<?xml version="1.0" encoding="UTF-8"?>
<svg version="1.1" xmlns="http://www.w3.org/2000/svg" width="800" height="1143">
<path d="M0 0 C1.91281655 -0.00694212 3.82563291 -0.01393716 5.7384491 -0.02098083 C11.81261442 -0.0401078 17.88674559 -0.04489799 23.9609375 -0.046875 C24.99514706 -0.04761143 26.02935661 -0.04834785 27.09490585 -0.0491066 C58.78545963 -0.06748777 90.30418288 0.34619956 121.90270996 3.00067139 C124.24606488 3.19564726 126.58999027 3.37950445 128.93457031 3.55908203 C138.08868159 4.26537996 147.21509363 5.146066 156.3359375 6.203125 C157.04053101 6.28477905 157.74512451 6.36643311 158.47106934 6.45056152 C272.79027775 19.81222028 272.79027775 19.81222028 306.3359375 54.203125 C306.93792969 54.78449219 307.53992188 55.36585937 308.16015625 55.96484375 C315.31393652 63.41904523 319.16120953 73.66785636 321.83764648 83.48120117 C322.05084502 84.25838847 322.26404356 85.03557577 322.48370266 85.8363142 C324.5925297 93.77500194 326.02764136 101.79134486 327.33506966 109.89498329 C327.75991016 112.52700327 328.19734705 115.15668802 328.63755798 117.78617859 C329.5686233 123.36090579 330.48446646 128.93807359 331.3984375 134.515625 C332.4633225 141.0091983 333.53478803 147.50157596 334.62057304 153.99168968 C335.04657964 156.55657219 335.46183944 159.12303322 335.8764801 161.68977356 C339.39574964 183.64926865 339.39574964 183.64926865 353.3359375 200.203125 C356.10418362 201.42530908 356.10418362 201.42530908 359.08984375 202.31640625 C360.73436523 202.85201172 360.73436523 202.85201172 362.41210938 203.3984375 C363.56259766 203.76710937 364.71308594 204.13578125 365.8984375 204.515625 C387.43451198 211.72188141 401.69637022 222.06766288 412.3984375 242.515625 C421.75051916 261.46192061 424.70175831 282.94832851 428.69921875 303.5078125 C428.84998367 304.28003143 429.0007486 305.05225037 429.15608215 305.84786987 C434.06227015 331.36775853 433.13309677 356.71628699 419.3359375 379.203125 C416.88932119 382.77347787 414.25954228 386.01530447 411.3359375 389.203125 C410.71074219 389.90824219 410.08554687 390.61335938 409.44140625 391.33984375 C397.35250192 404.26586162 380.33423287 410.84372367 363.33813477 414.34228516 C356.46696414 415.83980334 351.02797783 418.51108467 346.0234375 423.515625 C341.91366301 430.06082142 340.77457652 436.60622959 340.0565424 444.15289497 C339.9546652 445.1314146 339.85278801 446.10993422 339.74782363 447.11810595 C339.40901872 450.3978542 339.08567673 453.67894058 338.76222229 456.9602356 C338.52004924 459.33569026 338.27692025 461.71104763 338.03291744 464.08631504 C337.50450871 469.25146702 336.98280566 474.41725102 336.46700478 479.58367538 C335.69986508 487.2671014 334.92025317 494.94922603 334.13802195 502.63112848 C332.82184016 515.559841 331.51547722 528.48952767 330.21444893 541.4197731 C328.43605663 559.09313302 326.64385954 576.76507358 324.84806549 594.43667279 C324.01089162 602.67515472 323.17441559 610.9137075 322.33814144 619.15228081 C322.25441959 619.97706417 322.17069773 620.80184753 322.08443886 621.65162432 C320.09190576 641.28270651 318.10636194 660.9144947 316.12182617 680.54638672 C315.99159014 681.83470565 315.99159014 681.83470565 315.85872307 683.14905122 C315.06727387 690.97823851 314.27588264 698.80743166 313.48454994 706.63663072 C311.55070375 725.76939718 309.61594302 744.90207108 307.68041992 764.03466797 C307.59379745 764.89095268 307.50717499 765.7472374 307.4179276 766.62947013 C305.43817052 786.19954359 303.4567089 805.76944278 301.4705267 825.33886528 C301.38691282 826.1627046 301.30329894 826.98654393 301.21715131 827.83534808 C300.38203686 836.06332886 299.54666522 844.29128348 298.71089151 852.51919732 C296.91883905 870.16207618 295.13177589 887.80544046 293.35489874 905.44985455 C292.05842002 918.32329658 290.75596804 931.19612214 289.44738574 944.0683396 C288.67159964 951.70169353 287.90070826 959.33550441 287.13698474 966.97007484 C286.56401994 972.69228759 285.98178985 978.4135289 285.39617144 984.13445912 C285.16230513 986.43307508 284.93134717 988.73198943 284.70376856 991.03123643 C283.60487364 1002.11784708 282.32416196 1013.12044327 280.36636257 1024.09202385 C280.21280395 1024.96074885 280.05924532 1025.82947385 279.90103341 1026.72452385 C273.4173465 1061.23355952 252.57493346 1091.05747553 224.03637695 1110.97875977 C215.86249475 1116.55027575 207.33177118 1121.10978269 198.3359375 1125.203125 C196.58603516 1126.00363281 196.58603516 1126.00363281 194.80078125 1126.8203125 C179.53625918 1133.3453463 163.32812357 1136.97303174 146.9609375 1139.453125 C145.47835449 1139.67959717 145.47835449 1139.67959717 143.96582031 1139.91064453 C140.42873828 1140.40628304 136.88589812 1140.81437938 133.3359375 1141.203125 C132.2139093 1141.33492661 132.2139093 1141.33492661 131.06921387 1141.46939087 C108.66366135 1144.0136101 86.08844154 1143.46950701 63.57733154 1143.39874268 C59.28123672 1143.38798363 54.98517378 1143.38832104 50.68906784 1143.38874149 C19.8039294 1143.38806809 -11.10645382 1143.3368365 -41.9140625 1140.890625 C-42.73895172 1140.82687683 -43.56384094 1140.76312866 -44.41372681 1140.69744873 C-94.3534528 1136.8012519 -143.24129063 1127.70278151 -178.08203125 1088.47265625 C-197.27412216 1065.02058678 -201.75702387 1037.59091547 -204.76708984 1008.36645508 C-205.06099473 1005.57972808 -205.35808454 1002.79334203 -205.65483665 1000.006917 C-206.40123275 992.97664487 -207.13463529 985.94506864 -207.86371654 978.91298196 C-208.50428974 972.73584863 -209.14913791 966.5591728 -209.79621124 960.38271713 C-212.53229576 934.25910681 -215.24043609 908.13264348 -217.93947283 882.0051821 C-219.15843708 870.20557953 -220.37939289 858.40618323 -221.60034744 846.60678647 C-223.78299029 825.51284118 -225.96378821 804.41870558 -228.14355469 783.32446289 C-230.24255746 763.01179892 -232.34312223 742.69929723 -234.4453125 722.38696289 C-236.75523088 700.06744424 -239.06426706 677.74783464 -241.37182939 655.42807227 C-241.61923777 653.03503879 -241.86664652 650.64200535 -242.11405563 648.24897194 C-242.23567212 647.0726395 -242.35728861 645.89630707 -242.48259044 644.68432819 C-243.20779523 637.67023828 -243.93336398 630.65618614 -244.65925679 623.6421674 C-245.24501255 617.98221628 -245.8306262 612.32225046 -246.41616821 606.66227722 C-246.52946642 605.56715452 -246.64276462 604.47203182 -246.75949611 603.34372359 C-248.44767461 587.02315629 -250.12647554 570.7016444 -251.79640923 554.37920017 C-252.79421224 544.62675047 -253.79879335 534.87518081 -254.83390135 525.12661337 C-255.42644906 519.54551669 -256.0072981 513.96327304 -256.58243442 508.38035738 C-256.80209108 506.27330886 -257.02667699 504.16676658 -257.25691152 502.06084764 C-257.55769942 499.30738552 -257.8412313 496.55269456 -258.12020874 493.79695129 C-258.20781708 493.03920068 -258.29542541 492.28145006 -258.38568854 491.50073731 C-259.30166418 481.97428986 -256.68564972 474.55667621 -250.6640625 467.203125 C-244.65627393 460.73541004 -236.5652806 456.68501831 -227.74609375 455.96484375 C-218.26965816 455.74972753 -212.09316357 457.37282878 -204.5390625 463.078125 C-196.4855579 470.77798269 -193.43118561 480.10436891 -192.26329041 490.85076904 C-192.08533224 492.37471224 -192.08533224 492.37471224 -191.90377897 493.92944217 C-191.47356379 497.68557514 -191.0662542 501.44391676 -190.6640625 505.203125 C-190.54361115 506.32229394 -190.54361115 506.32229394 -190.42072645 507.46407235 C-188.98360996 520.82752135 -187.60501197 534.19693056 -186.23189533 547.56708074 C-185.64278361 553.29750751 -185.05061898 559.0276189 -184.45880127 564.75776672 C-183.43584554 574.6658504 -182.41463907 584.57411307 -181.39453316 594.48249054 C-179.84800098 609.50307003 -178.29709313 624.52319588 -176.74524907 639.54322739 C-176.12035389 645.59166347 -175.49559824 651.64011397 -174.87084103 657.6885643 C-174.80145454 658.36030769 -174.73206805 659.03205109 -174.66057894 659.72415034 C-173.01347406 675.67032138 -171.3677176 691.6166315 -169.72241211 707.56298828 C-169.65053651 708.25959835 -169.57866092 708.95620842 -169.50460727 709.67392788 C-167.82829004 725.92072848 -166.15269019 742.16760286 -164.47839355 758.41461182 C-164.40639094 759.11330514 -164.33438832 759.81199847 -164.26020381 760.53186432 C-163.89709999 764.05533861 -163.5340023 767.57881353 -163.17090576 771.10228857 C-163.09913804 771.79871831 -163.02737033 772.49514804 -162.95342783 773.21268171 C-162.80857311 774.61834587 -162.66371919 776.02401012 -162.51886608 777.42967445 C-160.05033293 801.38425433 -157.5775924 825.33839729 -155.10102028 849.2921474 C-153.62213755 863.59773227 -152.14675245 877.90366909 -150.67599129 892.21009126 C-149.66675838 902.02434869 -148.65351151 911.83818661 -147.63720865 921.65171441 C-147.05265583 927.29746094 -146.46982345 932.94337007 -145.89190483 938.58979988 C-143.06206708 966.53052342 -143.06206708 966.53052342 -139.52940369 994.38861084 C-139.38046207 995.45359307 -139.23152045 996.51857529 -139.07806545 997.61582971 C-135.48433217 1021.86630496 -127.00970879 1046.04302574 -106.6640625 1061.203125 C-95.281938 1068.52312603 -83.62019982 1073.65623949 -70.4765625 1076.890625 C-69.25827759 1077.19456177 -69.25827759 1077.19456177 -68.01538086 1077.50463867 C-54.39268317 1080.66905444 -40.4209742 1081.52431274 -26.48046875 1081.8125 C-25.71641787 1081.83069542 -24.95236698 1081.84889084 -24.16516304 1081.86763763 C-2.34635677 1082.38629806 19.48054462 1082.42595996 41.30444336 1082.44335938 C46.04996288 1082.44777625 50.79530387 1082.46183237 55.54077148 1082.484375 C92.554463 1082.8273956 92.554463 1082.8273956 129.3359375 1079.203125 C130.57287857 1079.01858765 130.57287857 1079.01858765 131.83480835 1078.83032227 C136.63020675 1078.10850758 141.38783685 1077.25567752 146.1484375 1076.328125 C147.42267578 1076.09738281 148.69691406 1075.86664062 150.00976562 1075.62890625 C170.6889591 1071.70101475 190.37225707 1064.37878266 203.45703125 1047.01171875 C217.71165085 1025.70387781 218.26632421 1000.15860867 220.20212555 975.33813286 C222.33784297 948.08809149 225.24447102 920.90882628 228.0448185 893.72101698 C228.83816336 886.01722785 229.62746971 878.31302619 230.4166408 870.60880857 C231.85187026 856.59839064 233.29007449 842.58827977 234.72994995 828.57833862 C236.66721744 809.72829087 238.59932245 790.87771633 240.53014028 772.02700698 C246.27169436 715.97248258 252.02083299 659.91874132 257.80188119 603.86827493 C257.92461361 602.6783128 258.04734603 601.48835068 258.17379761 600.2623291 C258.29480131 599.08914053 258.41580501 597.91595195 258.54047549 596.70721221 C260.00940195 582.46301519 261.47400599 568.21837347 262.93791008 553.97365952 C264.04738759 543.18049259 265.16156002 532.38783058 266.28205389 521.59580165 C267.02877124 514.40076196 267.770593 507.205229 268.50836474 500.00926656 C268.99989822 495.21710406 269.49694291 490.42556508 269.99890459 485.63448429 C270.29734599 482.7712349 270.589802 479.9073981 270.88049221 477.04335237 C271.0738093 475.15533919 271.27409371 473.26804325 271.47475433 471.38079643 C273.83354302 453.3807729 273.83354302 453.3807729 267.3359375 437.203125 C258.2877043 429.59838425 247.99437761 430.69993702 236.85498047 431.62744141 C231.49271213 432.10895602 226.13500566 432.63569883 220.77764893 433.16879272 C163.51350706 438.83655937 106.23348519 441.5806083 48.69116211 441.46386719 C43.03437793 441.45248083 37.37778227 441.45926844 31.72100449 441.47074509 C-8.41921796 441.53968836 -48.49938233 440.38232599 -88.5390625 437.453125 C-89.6887854 437.37075592 -90.8385083 437.28838684 -92.02307129 437.20352173 C-148.30388173 433.14130964 -204.25701599 426.366458 -259.9765625 417.515625 C-261.75031754 417.23614517 -261.75031754 417.23614517 -263.55990601 416.95101929 C-299.13640831 411.31553578 -299.13640831 411.31553578 -310.0390625 405.453125 C-310.69841797 405.11023438 -311.35777344 404.76734375 -312.03710938 404.4140625 C-317.80434303 401.31862269 -322.83265161 397.62390965 -327.6640625 393.203125 C-328.68693359 392.31753906 -328.68693359 392.31753906 -329.73046875 391.4140625 C-344.10783416 378.19026262 -352.80860888 357.98228372 -354.12109375 338.70703125 C-354.73433557 323.44495973 -352.19575531 308.96104646 -348.94290161 294.11816406 C-347.9395536 289.53936584 -347.02063446 284.95188876 -346.140625 280.34765625 C-343.66153534 267.50057181 -341.14764238 255.13967752 -335.6640625 243.203125 C-335.22707031 242.23246094 -334.79007812 241.26179687 -334.33984375 240.26171875 C-325.27841741 222.0090462 -308.70314067 208.72544052 -289.578125 202.140625 C-268.83268934 196.22959676 -248.43653064 200.00225862 -227.66183472 203.56170654 C-219.95305159 204.8806963 -212.2323314 206.12746911 -204.51171875 207.375 C-203.74042696 207.49991695 -202.96913517 207.62483391 -202.1744709 207.75353622 C-161.47698985 214.33071459 -120.40142781 217.97270792 -79.30041504 220.93884277 C-75.86995077 221.18816149 -72.44035086 221.44722787 -69.01074219 221.70800781 C-33.05334362 224.38496262 2.91385511 224.48798082 38.95277023 224.51275253 C42.70868127 224.51557631 46.46458183 224.52109998 50.2204895 224.52676392 C81.64232184 224.56106213 112.96359301 224.01711772 144.3359375 222.203125 C145.02810993 222.16325344 145.72028236 222.12338188 146.43342972 222.08230209 C154.6785401 221.60240086 162.9140683 221.02691234 171.1484375 220.390625 C172.24487579 220.30797394 173.34131409 220.22532288 174.47097778 220.14016724 C191.09664631 218.88217595 207.69049298 217.37157732 224.2734375 215.640625 C225.23166412 215.54075287 226.18989075 215.44088074 227.17715454 215.33798218 C233.56817624 214.66572783 239.95272145 213.94548838 246.3359375 213.203125 C247.35617004 213.08753235 248.37640259 212.9719397 249.42755127 212.85284424 C252.56658638 212.49372066 255.70325926 212.11815885 258.83984375 211.73828125 C260.28229713 211.5755497 260.28229713 211.5755497 261.75389099 211.40953064 C266.79351522 210.77899186 271.02302907 210.09247086 275.3359375 207.203125 C280.73045156 198.79254183 274.67023046 183.44814818 272.6953125 174.26953125 C272.32734621 172.54284979 271.95961375 170.81611848 271.59210205 169.08934021 C270.82326069 165.4852479 270.04925852 161.88230936 269.27197266 158.2800293 C268.28359894 153.69586078 267.31180575 149.10835405 266.34435654 144.51973057 C265.59052373 140.95662902 264.82596437 137.39589004 264.05847931 133.83570671 C263.69603068 132.14665125 263.3372227 130.45680978 262.98235321 128.76614571 C258.79221916 107.89379817 258.79221916 107.89379817 244.95703125 92.625 C235.45027874 87.26984496 224.9137035 85.35006799 214.3359375 83.203125 C213.68077148 83.06950562 213.02560547 82.93588623 212.35058594 82.79821777 C125.88669224 65.20953592 36.14448576 62.72775074 -158.6640625 82.203125 C-159.66623314 85.78640253 -159.66623314 85.78640253 -158.6640625 89.203125 C-156.51396831 89.89331484 -156.51396831 89.89331484 -153.86328125 90.3515625 C-152.83912109 90.55015869 -151.81496094 90.74875488 -150.75976562 90.95336914 C-149.63505859 91.15953857 -148.51035156 91.36570801 -147.3515625 91.578125 C-145.5890918 91.90574829 -145.5890918 91.90574829 -143.79101562 92.23999023 C-83.6655985 103.19619509 -21.69944462 106.02825223 39.3359375 105.203125 C39.99930115 105.19452454 40.66266479 105.18592407 41.34613037 105.17706299 C86.04915508 104.57492729 131.07920916 102.29941265 175.32128906 95.60913086 C185.90276192 94.18404264 196.06813011 95.09280777 205.20703125 101.0859375 C212.92232246 107.48286543 217.0236711 114.88553894 218.2734375 124.828125 C218.73536482 135.01939659 215.45874927 144.41058784 208.6328125 152.12890625 C203.05548199 157.19121299 196.81441917 159.38687323 189.4375 160.44921875 C188.7834166 160.54510788 188.12933319 160.64099701 187.45542908 160.73979187 C185.29210494 161.05209635 183.12697223 161.34774455 180.9609375 161.640625 C180.19852753 161.74606628 179.43611755 161.85150757 178.65060425 161.96014404 C159.26754647 164.6306909 139.83522922 166.61220096 120.3359375 168.203125 C118.96541229 168.31750916 118.96541229 168.31750916 117.56719971 168.4342041 C60.55148846 173.15917331 1.9331838 173.55899834 -55.14447021 169.38671875 C-57.85324075 169.18934025 -60.56256058 169.00085639 -63.27197266 168.8125 C-220.11875881 157.73518909 -220.11875881 157.73518909 -258.8125 114.8203125 C-268.19841086 103.45425166 -269.79174605 91.53856589 -268.6640625 77.203125 C-265.90538198 62.46246465 -256.71183439 51.61704416 -244.765625 43.1484375 C-178.78231187 0.43379903 -76.07105262 0.17375273 0 0 Z M-277.6640625 273.203125 C-281.62523436 278.67084606 -283.79681333 283.91241024 -285.3515625 290.453125 C-285.55869873 291.29230469 -285.76583496 292.13148438 -285.97924805 292.99609375 C-286.5605653 295.394345 -287.11699261 297.79686402 -287.6640625 300.203125 C-287.91414063 301.27046875 -288.16421875 302.3378125 -288.421875 303.4375 C-290.61479846 314.37123104 -292.13600444 329.01630046 -286.96875 339.26171875 C-281.7172505 347.07607579 -274.5027632 348.94791452 -265.6640625 351.203125 C-260.56998624 352.17465139 -255.45029362 352.87347018 -250.30859375 353.53515625 C-248.826552 353.73381611 -247.34461594 353.93326583 -245.86277771 354.13343811 C-241.89414995 354.66587199 -237.92366052 355.18282713 -233.95240784 355.69527435 C-231.45749691 356.0180919 -228.96312725 356.34482528 -226.46887207 356.67266846 C-192.59563465 361.11942021 -158.66885807 364.91850117 -124.6640625 368.203125 C-123.56394836 368.30991577 -122.46383423 368.41670654 -121.3303833 368.5267334 C-76.26215631 372.8823598 -30.94604975 375.66716421 14.3359375 376.203125 C15.64818298 376.21956055 15.64818298 376.21956055 16.98693848 376.23632812 C106.00831522 377.30419205 194.8601442 371.27674015 283.1484375 360.078125 C284.44416687 359.91413208 285.73989624 359.75013916 287.07489014 359.58117676 C300.12987025 357.91749707 313.16276629 356.14174629 326.1640625 354.09765625 C327.1777742 353.94017914 328.1914859 353.78270203 329.23591614 353.62045288 C341.55817183 351.63275029 353.43165417 348.69776335 361.3359375 338.203125 C365.50624813 330.65536219 365.97278388 323.5054786 365.8359375 315.015625 C365.82457764 313.82396729 365.81321777 312.63230957 365.80151367 311.40454102 C365.60449844 302.44980245 364.63339377 294.5986222 361.3359375 286.203125 C360.9853125 285.26726562 360.6346875 284.33140625 360.2734375 283.3671875 C357.06527032 275.9483009 352.0946035 270.47087052 344.75390625 266.97265625 C338.64207515 265.01516069 333.06106634 265.19123319 326.796875 265.9140625 C325.97292236 266.00536438 325.14896973 266.09666626 324.30004883 266.19073486 C315.23324616 267.24915206 306.26189248 268.82619934 297.27856445 270.43002319 C191.18341483 289.29023393 83.1641156 295.12543506 -226.94384766 268.7800293 C-227.68135757 268.61531631 -228.41886749 268.45060333 -229.1787262 268.28089905 C-231.13561667 267.84012945 -233.09048865 267.39042402 -235.04516602 266.93994141 C-242.09349115 265.50488472 -249.0458015 264.99897184 -256.2265625 264.953125 C-257.44375977 264.9221875 -257.44375977 264.9221875 -258.68554688 264.890625 C-266.75913542 264.83849529 -272.29725762 266.84769817 -277.6640625 273.203125 Z " fill="#0D0B22" transform="translate(353.6640625,-0.203125)"/>
<path d="M0 0 C0.33 0.33 0.66 0.66 1 1 C0.99525912 2.48895536 0.91307247 3.97768374 0.80200863 5.46249866 C0.72961784 6.44902965 0.65722706 7.43556063 0.58264261 8.45198649 C0.49421561 9.5641635 0.40578861 10.67634051 0.31468201 11.82221985 C0.22283109 13.01348081 0.13098018 14.20474177 0.0363459 15.43210155 C-1.36930486 33.2006818 -3.07223082 50.94440325 -4.73895967 68.68994343 C-5.24869572 74.12318887 -5.75539949 79.55671733 -6.26255798 84.99020386 C-7.36715945 96.81808526 -8.47565735 108.64559945 -9.58501506 120.47303557 C-10.27879847 127.86997685 -10.97176611 135.26699442 -11.66458321 142.66402626 C-13.58695658 163.1872694 -15.51024956 183.71042583 -17.43718624 204.23324108 C-17.56000099 205.54129006 -17.68281573 206.84933903 -17.80935213 208.19702585 C-18.05825864 210.84799724 -18.30716524 213.49896861 -18.55607193 216.14993998 C-18.68085467 217.47894761 -18.80563733 218.80795525 -18.93041992 220.13696289 C-18.99224527 220.7954275 -19.05407061 221.45389211 -19.11776945 222.13231019 C-21.12587058 243.51984043 -23.12778206 264.90794371 -25.12599112 286.29640027 C-27.24488925 308.97645062 -29.36918801 331.65598889 -31.49969107 354.33495218 C-32.65864992 366.67330058 -33.81525338 379.01185945 -34.96571159 391.35100365 C-35.94408056 401.8441108 -36.92756675 412.3367227 -37.91765349 422.82873096 C-38.42202923 428.17523781 -38.92404452 433.52193759 -39.41953278 438.86927605 C-39.87394319 443.77266025 -40.3353177 448.67533952 -40.80203027 453.57756761 C-40.96880722 455.34193242 -41.1331267 457.10653181 -41.29460537 458.87138941 C-43.81317164 486.35002294 -49.37828784 507.95865678 -71 527 C-85.07657994 537.82813842 -100.8659274 541.04540209 -118.19140625 541.8515625 C-120.10079231 541.94760773 -120.10079231 541.94760773 -122.04875183 542.04559326 C-126.21940687 542.25245356 -130.39083216 542.43987536 -134.5625 542.625 C-135.28081497 542.65741035 -135.99912994 542.68982071 -136.73921204 542.7232132 C-177.21125896 544.54680956 -217.57872314 544.67418427 -258.05323792 542.83979034 C-260.03147215 542.75138658 -262.00993833 542.66822345 -263.98840332 542.58514404 C-287.06846024 541.58321966 -306.69658983 539.38751181 -325 524 C-325.80824219 523.38898437 -326.61648438 522.77796875 -327.44921875 522.1484375 C-346.52431821 506.08212096 -349.72652684 481.43504182 -351.9172821 458.13987732 C-352.08833704 456.38222881 -352.26006494 454.62464569 -352.43240005 452.86712223 C-352.89995979 448.07897491 -353.35803967 443.28996259 -353.81445944 438.50074232 C-354.30986539 433.32034409 -354.81419391 428.14081334 -355.31738281 422.96116638 C-356.29989339 412.83310023 -357.27426754 402.70426727 -358.24587639 392.57515012 C-359.37792998 380.77675062 -360.51821646 368.97915114 -361.65885708 357.18157924 C-363.69328025 336.13686999 -365.72043977 315.09146748 -367.7434082 294.0456543 C-369.7064264 273.62361254 -371.67429828 253.20204642 -373.64770508 232.78100586 C-373.76938373 231.52185301 -373.89106237 230.26270015 -374.01642825 228.96539115 C-374.13789829 227.70841027 -374.25936833 226.45142939 -374.38451928 225.15635818 C-374.62909052 222.62550938 -374.87366008 220.09466042 -375.11822796 217.5638113 C-375.23884129 216.31568392 -375.35945462 215.06755654 -375.48372291 213.78160712 C-377.36488734 194.31298504 -379.2417327 174.84394631 -381.11809134 155.37486057 C-381.79816646 148.31892694 -382.47886134 141.26305342 -383.15999945 134.20722234 C-384.23969972 123.0224973 -385.31754022 111.83759656 -386.39150103 100.65231883 C-386.8822443 95.54158586 -387.37388222 90.43094332 -387.86798286 85.32053375 C-388.31999777 80.64503557 -388.76936155 75.96929054 -389.21658204 71.29333139 C-389.3790216 69.59977949 -389.54242873 67.90632007 -389.70688852 66.21296316 C-389.92992331 63.91493717 -390.14943968 61.61660123 -390.36806774 59.31815243 C-390.49098979 58.04055048 -390.61391184 56.76294853 -390.7405588 55.44663137 C-390.97888507 52.28050822 -391.04929292 49.17332607 -391 46 C-385.60634369 46.57042194 -380.42699583 47.51884977 -375.13867188 48.71411133 C-299.48582981 65.65589189 -230.54790418 44.70632191 -161.35668945 14.54516602 C-145.35224161 7.58896759 -129.19222873 0.73419923 -112.3125 -3.8125 C-111.2706958 -4.09818848 -110.2288916 -4.38387695 -109.15551758 -4.67822266 C-72.93229601 -14.35369801 -35.29245649 -12.65822773 0 0 Z " fill="#FEDD00" transform="translate(589,509)"/>
<path d="M0 0 C0.99 0 1.98 0 3 0 C2.67 2.64 2.34 5.28 2 8 C1.67 6.68 1.34 5.36 1 4 C0.34 4 -0.32 4 -1 4 C-0.67 2.68 -0.34 1.36 0 0 Z " fill="#F0E20C" transform="translate(541,992)"/>
<path d="M0 0 C0.66 0.33 1.32 0.66 2 1 C1.01 1 0.02 1 -1 1 C-0.67 0.67 -0.34 0.34 0 0 Z " fill="#0D0D0D" transform="translate(380,1060)"/>
</svg>
